<mxfile host="app.diagrams.net" modified="2023-04-12T13:27:25.586Z" agent="Mozilla/5.0 (Windows NT 10.0; Win64; x64) AppleWebKit/537.36 (KHTML, like Gecko) Chrome/111.0.0.0 Safari/537.36" etag="UjvKNybXn-eGjXdZM5Jx" version="21.1.5" type="github">
  <diagram name="第 1 页" id="PQ9lc6gKN5pvzbfL1fvL">
    <mxGraphModel dx="954" dy="552" grid="1" gridSize="10" guides="1" tooltips="1" connect="1" arrows="1" fold="1" page="1" pageScale="1" pageWidth="827" pageHeight="1169" math="0" shadow="0">
      <root>
        <mxCell id="0" />
        <mxCell id="1" parent="0" />
        <mxCell id="thW9o4pHKcx0Y6vUj5Ec-2" value="" style="rounded=1;whiteSpace=wrap;html=1;" vertex="1" parent="1">
          <mxGeometry x="160" y="380" width="430" height="180" as="geometry" />
        </mxCell>
        <mxCell id="thW9o4pHKcx0Y6vUj5Ec-3" value="数据源" style="text;html=1;strokeColor=#d6b656;fillColor=#fff2cc;align=center;verticalAlign=middle;whiteSpace=wrap;rounded=0;" vertex="1" parent="1">
          <mxGeometry x="345" y="350" width="60" height="30" as="geometry" />
        </mxCell>
        <mxCell id="thW9o4pHKcx0Y6vUj5Ec-4" value="商品DB" style="shape=cylinder3;whiteSpace=wrap;html=1;boundedLbl=1;backgroundOutline=1;size=15;" vertex="1" parent="1">
          <mxGeometry x="190" y="440" width="60" height="80" as="geometry" />
        </mxCell>
        <mxCell id="thW9o4pHKcx0Y6vUj5Ec-5" value="公告DB" style="shape=cylinder3;whiteSpace=wrap;html=1;boundedLbl=1;backgroundOutline=1;size=15;" vertex="1" parent="1">
          <mxGeometry x="285" y="440" width="60" height="80" as="geometry" />
        </mxCell>
        <mxCell id="thW9o4pHKcx0Y6vUj5Ec-6" value="文档DB" style="shape=cylinder3;whiteSpace=wrap;html=1;boundedLbl=1;backgroundOutline=1;size=15;" vertex="1" parent="1">
          <mxGeometry x="384" y="440" width="60" height="80" as="geometry" />
        </mxCell>
        <mxCell id="thW9o4pHKcx0Y6vUj5Ec-7" value="不良影响DB" style="shape=cylinder3;whiteSpace=wrap;html=1;boundedLbl=1;backgroundOutline=1;size=15;" vertex="1" parent="1">
          <mxGeometry x="487" y="440" width="60" height="80" as="geometry" />
        </mxCell>
      </root>
    </mxGraphModel>
  </diagram>
</mxfile>
